# xmcd
#
# Track frame offsets:
#	150
#	12735
#	26731
#	37336
#	54706
#	68171
#	79990
#	94717
#	106523
#	120531
#	130938
#
# Disc length: 1921 seconds
#
# Revision: 1
# Processed by: cddbd v1.5.1PL0 Copyright (c) Steve Scherf et al.
# Submitted via: audiograbber 1.83.01
#
DISCID=95077f0b
DTITLE=Dottie West - Country And West
DYEAR=1970
DGENRE=Country
TTITLE0=It's Dawned on Me You're Gone
TTITLE1=As Long as I Love
TTITLE2=Love's Farewell
TTITLE3=I'm Only Human
TTITLE4=Today I Started Loving You Aga
TTITLE5=Left Over Feelings
TTITLE6=I'm So Afraid of Losing You Ag
TTITLE7=Tomorrow Never Comes
TTITLE8=You've Destroyed Me
TTITLE9=I Stayed Long Enough
TTITLE10=Loving You Has Meant Everythin
EXTD=
EXTT0=
EXTT1=
EXTT2=
EXTT3=
EXTT4=
EXTT5=
EXTT6=
EXTT7=
EXTT8=
EXTT9=
EXTT10=
PLAYORDER=
